<?xml version="1.0" encoding="UTF-8"?>
<svg xmlns="http://www.w3.org/2000/svg" xmlns:xlink="http://www.w3.org/1999/xlink" width="361pt" height="209pt" viewBox="0 0 361 209" version="1.1">
<defs>
<clipPath id="clip1">
  <path d="M 60 9 L 62 9 L 62 178.875 L 60 178.875 Z M 60 9 "/>
</clipPath>
<clipPath id="clip2">
  <path d="M 105 9 L 107 9 L 107 178.875 L 105 178.875 Z M 105 9 "/>
</clipPath>
<clipPath id="clip3">
  <path d="M 149 9 L 152 9 L 152 178.875 L 149 178.875 Z M 149 9 "/>
</clipPath>
<clipPath id="clip4">
  <path d="M 194 9 L 197 9 L 197 178.875 L 194 178.875 Z M 194 9 "/>
</clipPath>
<clipPath id="clip5">
  <path d="M 239 9 L 242 9 L 242 178.875 L 239 178.875 Z M 239 9 "/>
</clipPath>
<clipPath id="clip6">
  <path d="M 284 9 L 286 9 L 286 178.875 L 284 178.875 Z M 284 9 "/>
</clipPath>
<clipPath id="clip7">
  <path d="M 329 9 L 331 9 L 331 178.875 L 329 178.875 Z M 329 9 "/>
</clipPath>
<clipPath id="clip8">
  <path d="M 37.628906 170 L 351.503906 170 L 351.503906 172 L 37.628906 172 Z M 37.628906 170 "/>
</clipPath>
<clipPath id="clip9">
  <path d="M 37.628906 139 L 351.503906 139 L 351.503906 142 L 37.628906 142 Z M 37.628906 139 "/>
</clipPath>
<clipPath id="clip10">
  <path d="M 37.628906 108 L 351.503906 108 L 351.503906 111 L 37.628906 111 Z M 37.628906 108 "/>
</clipPath>
<clipPath id="clip11">
  <path d="M 37.628906 77 L 351.503906 77 L 351.503906 80 L 37.628906 80 Z M 37.628906 77 "/>
</clipPath>
<clipPath id="clip12">
  <path d="M 37.628906 46 L 351.503906 46 L 351.503906 49 L 37.628906 49 Z M 37.628906 46 "/>
</clipPath>
<clipPath id="clip13">
  <path d="M 37.628906 15 L 351.503906 15 L 351.503906 18 L 37.628906 18 Z M 37.628906 15 "/>
</clipPath>
<filter id="alpha" filterUnits="objectBoundingBox" x="0%" y="0%" width="100%" height="100%">
  <feColorMatrix type="matrix" in="SourceGraphic" values="0 0 0 0 1 0 0 0 0 1 0 0 0 0 1 0 0 0 1 0"/>
</filter>
<mask id="mask0">
  <g filter="url(#alpha)">
<rect x="0" y="0" width="361" height="209" style="fill:rgb(0%,0%,0%);fill-opacity:0.8;stroke:none;"/>
  </g>
</mask>
<clipPath id="clip14">
  <rect width="361" height="209"/>
</clipPath>
<g id="surface6" clip-path="url(#clip14)">
<path style="fill-rule:nonzero;fill:rgb(100%,100%,100%);fill-opacity:1;stroke-width:1;stroke-linecap:butt;stroke-linejoin:miter;stroke:rgb(80%,80%,80%);stroke-opacity:1;stroke-miterlimit:4;" d="M 37.103125 44.55625 L 111.228125 44.55625 C 112.5625 44.55625 113.228125 43.890625 113.228125 42.55625 L 113.228125 14.2 C 113.228125 12.865625 112.5625 12.2 111.228125 12.2 L 37.103125 12.2 C 35.76875 12.2 35.103125 12.865625 35.103125 14.2 L 35.103125 42.55625 C 35.103125 43.890625 35.76875 44.55625 37.103125 44.55625 Z M 37.103125 44.55625 " transform="matrix(1.25,0,0,1.25,0,0.000000000000014211)"/>
</g>
</defs>
<g id="surface1">
<path style=" stroke:none;fill-rule:nonzero;fill:rgb(100%,100%,100%);fill-opacity:1;" d="M 37.628906 178.875 L 351.503906 178.875 L 351.503906 9 L 37.628906 9 Z M 37.628906 178.875 "/>
<g clip-path="url(#clip1)" clip-rule="nonzero">
<path style="fill:none;stroke-width:0.8;stroke-linecap:square;stroke-linejoin:round;stroke:rgb(69.019608%,69.019608%,69.019608%);stroke-opacity:1;stroke-miterlimit:4;" d="M 48.69375 143.1 L 48.69375 7.2 " transform="matrix(1.25,0,0,1.25,0,0.000000000000014211)"/>
</g>
<path style="fill:none;stroke-width:0.8;stroke-linecap:butt;stroke-linejoin:round;stroke:rgb(0%,0%,0%);stroke-opacity:1;stroke-miterlimit:4;" d="M -0.001399 0 L -0.001399 3.5 " transform="matrix(1.25,0,0,1.25,60.868936,178.875)"/>
<path style=" stroke:none;fill-rule:nonzero;fill:rgb(0%,0%,0%);fill-opacity:1;" d="M 47.015625 192.6875 L 54.839844 192.6875 L 54.839844 193.722656 L 47.015625 193.722656 Z M 47.015625 192.6875 "/>
<path style=" stroke:none;fill-rule:nonzero;fill:rgb(0%,0%,0%);fill-opacity:1;" d="M 57.191406 188.011719 L 63.050781 188.011719 L 63.050781 188.535156 L 59.742188 197.125 L 58.453125 197.125 L 61.566406 189.050781 L 57.191406 189.050781 Z M 57.191406 188.011719 "/>
<path style=" stroke:none;fill-rule:nonzero;fill:rgb(0%,0%,0%);fill-opacity:1;" d="M 65.453125 195.574219 L 66.742188 195.574219 L 66.742188 197.125 L 65.453125 197.125 Z M 65.453125 195.574219 "/>
<path style=" stroke:none;fill-rule:nonzero;fill:rgb(0%,0%,0%);fill-opacity:1;" d="M 69.441406 188.011719 L 74.28125 188.011719 L 74.28125 189.050781 L 70.570312 189.050781 L 70.570312 191.28125 C 70.75 191.21875 70.925781 191.175781 71.105469 191.144531 C 71.285156 191.113281 71.464844 191.101562 71.644531 191.101562 C 72.660156 191.101562 73.46875 191.378906 74.0625 191.9375 C 74.65625 192.492188 74.953125 193.246094 74.953125 194.199219 C 74.953125 195.179688 74.648438 195.941406 74.039062 196.488281 C 73.425781 197.03125 72.566406 197.300781 71.457031 197.300781 C 71.074219 197.300781 70.683594 197.269531 70.285156 197.203125 C 69.890625 197.136719 69.480469 197.039062 69.058594 196.910156 L 69.058594 195.671875 C 69.421875 195.871094 69.800781 196.019531 70.191406 196.117188 C 70.582031 196.214844 70.996094 196.261719 71.429688 196.261719 C 72.132812 196.261719 72.691406 196.078125 73.101562 195.707031 C 73.511719 195.335938 73.71875 194.835938 73.71875 194.199219 C 73.71875 193.566406 73.511719 193.0625 73.101562 192.695312 C 72.691406 192.324219 72.132812 192.136719 71.429688 192.136719 C 71.101562 192.136719 70.773438 192.171875 70.445312 192.246094 C 70.117188 192.320312 69.78125 192.433594 69.441406 192.589844 Z M 69.441406 188.011719 "/>
<g clip-path="url(#clip2)" clip-rule="nonzero">
<path style="fill:none;stroke-width:0.8;stroke-linecap:square;stroke-linejoin:round;stroke:rgb(69.019608%,69.019608%,69.019608%);stroke-opacity:1;stroke-miterlimit:4;" d="M 84.5875 143.1 L 84.5875 7.2 " transform="matrix(1.25,0,0,1.25,0,0.000000000000014211)"/>
</g>
<path style="fill:none;stroke-width:0.8;stroke-linecap:butt;stroke-linejoin:round;stroke:rgb(0%,0%,0%);stroke-opacity:1;stroke-miterlimit:4;" d="M 0.000412 0 L 0.000412 3.5 " transform="matrix(1.25,0,0,1.25,105.73386,178.875)"/>
<path style=" stroke:none;fill-rule:nonzero;fill:rgb(0%,0%,0%);fill-opacity:1;" d="M 91.882812 192.6875 L 99.707031 192.6875 L 99.707031 193.722656 L 91.882812 193.722656 Z M 91.882812 192.6875 "/>
<path style=" stroke:none;fill-rule:nonzero;fill:rgb(0%,0%,0%);fill-opacity:1;" d="M 102.378906 188.011719 L 107.21875 188.011719 L 107.21875 189.050781 L 103.507812 189.050781 L 103.507812 191.28125 C 103.6875 191.21875 103.867188 191.175781 104.042969 191.144531 C 104.222656 191.113281 104.402344 191.101562 104.582031 191.101562 C 105.601562 191.101562 106.40625 191.378906 107 191.9375 C 107.59375 192.492188 107.890625 193.246094 107.890625 194.199219 C 107.890625 195.179688 107.585938 195.941406 106.976562 196.488281 C 106.367188 197.03125 105.503906 197.300781 104.394531 197.300781 C 104.011719 197.300781 103.621094 197.269531 103.222656 197.203125 C 102.828125 197.136719 102.417969 197.039062 101.996094 196.910156 L 101.996094 195.671875 C 102.363281 195.871094 102.738281 196.019531 103.128906 196.117188 C 103.519531 196.214844 103.933594 196.261719 104.367188 196.261719 C 105.074219 196.261719 105.628906 196.078125 106.039062 195.707031 C 106.453125 195.335938 106.65625 194.835938 106.65625 194.199219 C 106.65625 193.566406 106.453125 193.0625 106.039062 192.695312 C 105.628906 192.324219 105.074219 192.136719 104.367188 192.136719 C 104.039062 192.136719 103.710938 192.171875 103.382812 192.246094 C 103.054688 192.320312 102.722656 192.433594 102.378906 192.589844 Z M 102.378906 188.011719 "/>
<path style=" stroke:none;fill-rule:nonzero;fill:rgb(0%,0%,0%);fill-opacity:1;" d="M 110.320312 195.574219 L 111.609375 195.574219 L 111.609375 197.125 L 110.320312 197.125 Z M 110.320312 195.574219 "/>
<path style=" stroke:none;fill-rule:nonzero;fill:rgb(0%,0%,0%);fill-opacity:1;" d="M 116.929688 188.824219 C 116.296875 188.824219 115.816406 189.136719 115.496094 189.761719 C 115.179688 190.382812 115.019531 191.324219 115.019531 192.578125 C 115.019531 193.824219 115.179688 194.761719 115.496094 195.386719 C 115.816406 196.011719 116.296875 196.324219 116.929688 196.324219 C 117.570312 196.324219 118.046875 196.011719 118.367188 195.386719 C 118.6875 194.761719 118.847656 193.824219 118.847656 192.578125 C 118.847656 191.324219 118.6875 190.382812 118.367188 189.761719 C 118.046875 189.136719 117.570312 188.824219 116.929688 188.824219 Z M 116.929688 187.847656 C 117.953125 187.847656 118.730469 188.25 119.269531 189.058594 C 119.808594 189.867188 120.078125 191.039062 120.078125 192.578125 C 120.078125 194.109375 119.808594 195.28125 119.269531 196.089844 C 118.730469 196.898438 117.953125 197.300781 116.929688 197.300781 C 115.910156 197.300781 115.128906 196.898438 114.589844 196.089844 C 114.050781 195.28125 113.78125 194.109375 113.78125 192.578125 C 113.78125 191.039062 114.050781 189.867188 114.589844 189.058594 C 115.128906 188.25 115.910156 187.847656 116.929688 187.847656 Z M 116.929688 187.847656 "/>
<g clip-path="url(#clip3)" clip-rule="nonzero">
<path style="fill:none;stroke-width:0.8;stroke-linecap:square;stroke-linejoin:round;stroke:rgb(69.019608%,69.019608%,69.019608%);stroke-opacity:1;stroke-miterlimit:4;" d="M 120.478125 143.1 L 120.478125 7.2 " transform="matrix(1.25,0,0,1.25,0,0.000000000000014211)"/>
</g>
<path style="fill:none;stroke-width:0.8;stroke-linecap:butt;stroke-linejoin:round;stroke:rgb(0%,0%,0%);stroke-opacity:1;stroke-miterlimit:4;" d="M -0.000902 0 L -0.000902 3.5 " transform="matrix(1.25,0,0,1.25,150.598784,178.875)"/>
<path style=" stroke:none;fill-rule:nonzero;fill:rgb(0%,0%,0%);fill-opacity:1;" d="M 136.746094 192.6875 L 144.570312 192.6875 L 144.570312 193.722656 L 136.746094 193.722656 Z M 136.746094 192.6875 "/>
<path style=" stroke:none;fill-rule:nonzero;fill:rgb(0%,0%,0%);fill-opacity:1;" d="M 148.292969 196.085938 L 152.597656 196.085938 L 152.597656 197.125 L 146.8125 197.125 L 146.8125 196.085938 C 147.277344 195.601562 147.917969 194.953125 148.722656 194.136719 C 149.53125 193.320312 150.039062 192.792969 150.246094 192.558594 C 150.640625 192.113281 150.917969 191.738281 151.074219 191.433594 C 151.230469 191.125 151.308594 190.824219 151.308594 190.527344 C 151.308594 190.042969 151.140625 189.648438 150.800781 189.34375 C 150.460938 189.035156 150.015625 188.882812 149.472656 188.882812 C 149.085938 188.882812 148.675781 188.949219 148.246094 189.085938 C 147.820312 189.21875 147.359375 189.421875 146.871094 189.695312 L 146.871094 188.449219 C 147.367188 188.25 147.832031 188.101562 148.261719 188 C 148.695312 187.898438 149.089844 187.847656 149.449219 187.847656 C 150.390625 187.847656 151.144531 188.082031 151.707031 188.554688 C 152.265625 189.027344 152.546875 189.65625 152.546875 190.445312 C 152.546875 190.820312 152.476562 191.175781 152.335938 191.511719 C 152.199219 191.847656 151.941406 192.242188 151.570312 192.699219 C 151.46875 192.816406 151.144531 193.15625 150.601562 193.722656 C 150.054688 194.285156 149.289062 195.074219 148.292969 196.085938 Z M 148.292969 196.085938 "/>
<path style=" stroke:none;fill-rule:nonzero;fill:rgb(0%,0%,0%);fill-opacity:1;" d="M 155.183594 195.574219 L 156.472656 195.574219 L 156.472656 197.125 L 155.183594 197.125 Z M 155.183594 195.574219 "/>
<path style=" stroke:none;fill-rule:nonzero;fill:rgb(0%,0%,0%);fill-opacity:1;" d="M 159.171875 188.011719 L 164.011719 188.011719 L 164.011719 189.050781 L 160.300781 189.050781 L 160.300781 191.28125 C 160.480469 191.21875 160.65625 191.175781 160.835938 191.144531 C 161.015625 191.113281 161.195312 191.101562 161.375 191.101562 C 162.390625 191.101562 163.195312 191.378906 163.789062 191.9375 C 164.386719 192.492188 164.683594 193.246094 164.683594 194.199219 C 164.683594 195.179688 164.378906 195.941406 163.765625 196.488281 C 163.15625 197.03125 162.296875 197.300781 161.183594 197.300781 C 160.800781 197.300781 160.414062 197.269531 160.015625 197.203125 C 159.621094 197.136719 159.210938 197.039062 158.785156 196.910156 L 158.785156 195.671875 C 159.152344 195.871094 159.53125 196.019531 159.921875 196.117188 C 160.3125 196.214844 160.726562 196.261719 161.160156 196.261719 C 161.863281 196.261719 162.421875 196.078125 162.832031 195.707031 C 163.242188 195.335938 163.449219 194.835938 163.449219 194.199219 C 163.449219 193.566406 163.242188 193.0625 162.832031 192.695312 C 162.421875 192.324219 161.863281 192.136719 161.160156 192.136719 C 160.832031 192.136719 160.5 192.171875 160.171875 192.246094 C 159.847656 192.320312 159.511719 192.433594 159.171875 192.589844 Z M 159.171875 188.011719 "/>
<g clip-path="url(#clip4)" clip-rule="nonzero">
<path style="fill:none;stroke-width:0.8;stroke-linecap:square;stroke-linejoin:round;stroke:rgb(69.019608%,69.019608%,69.019608%);stroke-opacity:1;stroke-miterlimit:4;" d="M 156.371875 143.1 L 156.371875 7.2 " transform="matrix(1.25,0,0,1.25,0,0.000000000000014211)"/>
</g>
<path style="fill:none;stroke-width:0.8;stroke-linecap:butt;stroke-linejoin:round;stroke:rgb(0%,0%,0%);stroke-opacity:1;stroke-miterlimit:4;" d="M 0.000908 0 L 0.000908 3.5 " transform="matrix(1.25,0,0,1.25,195.463709,178.875)"/>
<path style=" stroke:none;fill-rule:nonzero;fill:rgb(0%,0%,0%);fill-opacity:1;" d="M 189.496094 188.824219 C 188.863281 188.824219 188.386719 189.136719 188.066406 189.761719 C 187.746094 190.382812 187.585938 191.324219 187.585938 192.578125 C 187.585938 193.824219 187.746094 194.761719 188.066406 195.386719 C 188.386719 196.011719 188.863281 196.324219 189.496094 196.324219 C 190.136719 196.324219 190.617188 196.011719 190.933594 195.386719 C 191.253906 194.761719 191.414062 193.824219 191.414062 192.578125 C 191.414062 191.324219 191.253906 190.382812 190.933594 189.761719 C 190.617188 189.136719 190.136719 188.824219 189.496094 188.824219 Z M 189.496094 187.847656 C 190.519531 187.847656 191.300781 188.25 191.839844 189.058594 C 192.378906 189.867188 192.648438 191.039062 192.648438 192.578125 C 192.648438 194.109375 192.378906 195.28125 191.839844 196.089844 C 191.300781 196.898438 190.519531 197.300781 189.496094 197.300781 C 188.476562 197.300781 187.695312 196.898438 187.15625 196.089844 C 186.617188 195.28125 186.347656 194.109375 186.347656 192.578125 C 186.347656 191.039062 186.617188 189.867188 187.15625 189.058594 C 187.695312 188.25 188.476562 187.847656 189.496094 187.847656 Z M 189.496094 187.847656 "/>
<path style=" stroke:none;fill-rule:nonzero;fill:rgb(0%,0%,0%);fill-opacity:1;" d="M 194.8125 195.574219 L 196.101562 195.574219 L 196.101562 197.125 L 194.8125 197.125 Z M 194.8125 195.574219 "/>
<path style=" stroke:none;fill-rule:nonzero;fill:rgb(0%,0%,0%);fill-opacity:1;" d="M 201.421875 188.824219 C 200.789062 188.824219 200.3125 189.136719 199.992188 189.761719 C 199.671875 190.382812 199.511719 191.324219 199.511719 192.578125 C 199.511719 193.824219 199.671875 194.761719 199.992188 195.386719 C 200.3125 196.011719 200.789062 196.324219 201.421875 196.324219 C 202.0625 196.324219 202.542969 196.011719 202.859375 195.386719 C 203.179688 194.761719 203.339844 193.824219 203.339844 192.578125 C 203.339844 191.324219 203.179688 190.382812 202.859375 189.761719 C 202.542969 189.136719 202.0625 188.824219 201.421875 188.824219 Z M 201.421875 187.847656 C 202.445312 187.847656 203.226562 188.25 203.765625 189.058594 C 204.304688 189.867188 204.574219 191.039062 204.574219 192.578125 C 204.574219 194.109375 204.304688 195.28125 203.765625 196.089844 C 203.226562 196.898438 202.445312 197.300781 201.421875 197.300781 C 200.402344 197.300781 199.621094 196.898438 199.082031 196.089844 C 198.542969 195.28125 198.273438 194.109375 198.273438 192.578125 C 198.273438 191.039062 198.542969 189.867188 199.082031 189.058594 C 199.621094 188.25 200.402344 187.847656 201.421875 187.847656 Z M 201.421875 187.847656 "/>
<g clip-path="url(#clip5)" clip-rule="nonzero">
<path style="fill:none;stroke-width:0.8;stroke-linecap:square;stroke-linejoin:round;stroke:rgb(69.019608%,69.019608%,69.019608%);stroke-opacity:1;stroke-miterlimit:4;" d="M 192.2625 143.1 L 192.2625 7.2 " transform="matrix(1.25,0,0,1.25,0,0.000000000000014211)"/>
</g>
<path style="fill:none;stroke-width:0.8;stroke-linecap:butt;stroke-linejoin:round;stroke:rgb(0%,0%,0%);stroke-opacity:1;stroke-miterlimit:4;" d="M -0.000406 0 L -0.000406 3.5 " transform="matrix(1.25,0,0,1.25,240.328632,178.875)"/>
<path style=" stroke:none;fill-rule:nonzero;fill:rgb(0%,0%,0%);fill-opacity:1;" d="M 232.789062 196.085938 L 237.089844 196.085938 L 237.089844 197.125 L 231.304688 197.125 L 231.304688 196.085938 C 231.773438 195.601562 232.410156 194.953125 233.21875 194.136719 C 234.027344 193.320312 234.535156 192.792969 234.742188 192.558594 C 235.136719 192.113281 235.410156 191.738281 235.566406 191.433594 C 235.722656 191.125 235.804688 190.824219 235.804688 190.527344 C 235.804688 190.042969 235.632812 189.648438 235.292969 189.34375 C 234.953125 189.035156 234.511719 188.882812 233.964844 188.882812 C 233.578125 188.882812 233.171875 188.949219 232.742188 189.085938 C 232.3125 189.21875 231.855469 189.421875 231.367188 189.695312 L 231.367188 188.449219 C 231.863281 188.25 232.324219 188.101562 232.757812 188 C 233.1875 187.898438 233.582031 187.847656 233.941406 187.847656 C 234.886719 187.847656 235.636719 188.082031 236.199219 188.554688 C 236.761719 189.027344 237.042969 189.65625 237.042969 190.445312 C 237.042969 190.820312 236.972656 191.175781 236.832031 191.511719 C 236.691406 191.847656 236.4375 192.242188 236.066406 192.699219 C 235.964844 192.816406 235.640625 193.15625 235.09375 193.722656 C 234.550781 194.285156 233.78125 195.074219 232.789062 196.085938 Z M 232.789062 196.085938 "/>
<path style=" stroke:none;fill-rule:nonzero;fill:rgb(0%,0%,0%);fill-opacity:1;" d="M 239.679688 195.574219 L 240.96875 195.574219 L 240.96875 197.125 L 239.679688 197.125 Z M 239.679688 195.574219 "/>
<path style=" stroke:none;fill-rule:nonzero;fill:rgb(0%,0%,0%);fill-opacity:1;" d="M 243.664062 188.011719 L 248.503906 188.011719 L 248.503906 189.050781 L 244.792969 189.050781 L 244.792969 191.28125 C 244.972656 191.21875 245.152344 191.175781 245.328125 191.144531 C 245.507812 191.113281 245.6875 191.101562 245.867188 191.101562 C 246.886719 191.101562 247.691406 191.378906 248.285156 191.9375 C 248.878906 192.492188 249.175781 193.246094 249.175781 194.199219 C 249.175781 195.179688 248.871094 195.941406 248.261719 196.488281 C 247.648438 197.03125 246.789062 197.300781 245.679688 197.300781 C 245.296875 197.300781 244.90625 197.269531 244.507812 197.203125 C 244.113281 197.136719 243.703125 197.039062 243.28125 196.910156 L 243.28125 195.671875 C 243.644531 195.871094 244.023438 196.019531 244.414062 196.117188 C 244.804688 196.214844 245.21875 196.261719 245.652344 196.261719 C 246.359375 196.261719 246.914062 196.078125 247.324219 195.707031 C 247.738281 195.335938 247.941406 194.835938 247.941406 194.199219 C 247.941406 193.566406 247.738281 193.0625 247.324219 192.695312 C 246.914062 192.324219 246.359375 192.136719 245.652344 192.136719 C 245.324219 192.136719 244.996094 192.171875 244.667969 192.246094 C 244.339844 192.320312 244.007812 192.433594 243.664062 192.589844 Z M 243.664062 188.011719 "/>
<g clip-path="url(#clip6)" clip-rule="nonzero">
<path style="fill:none;stroke-width:0.8;stroke-linecap:square;stroke-linejoin:round;stroke:rgb(69.019608%,69.019608%,69.019608%);stroke-opacity:1;stroke-miterlimit:4;" d="M 228.15625 143.1 L 228.15625 7.2 " transform="matrix(1.25,0,0,1.25,0,0.000000000000014211)"/>
</g>
<path style="fill:none;stroke-width:0.8;stroke-linecap:butt;stroke-linejoin:round;stroke:rgb(0%,0%,0%);stroke-opacity:1;stroke-miterlimit:4;" d="M 0.001405 0 L 0.001405 3.5 " transform="matrix(1.25,0,0,1.25,285.193556,178.875)"/>
<path style=" stroke:none;fill-rule:nonzero;fill:rgb(0%,0%,0%);fill-opacity:1;" d="M 276.605469 188.011719 L 281.445312 188.011719 L 281.445312 189.050781 L 277.734375 189.050781 L 277.734375 191.28125 C 277.910156 191.21875 278.089844 191.175781 278.269531 191.144531 C 278.449219 191.113281 278.628906 191.101562 278.808594 191.101562 C 279.824219 191.101562 280.628906 191.378906 281.222656 191.9375 C 281.816406 192.492188 282.117188 193.246094 282.117188 194.199219 C 282.117188 195.179688 281.808594 195.941406 281.199219 196.488281 C 280.589844 197.03125 279.726562 197.300781 278.617188 197.300781 C 278.234375 197.300781 277.84375 197.269531 277.449219 197.203125 C 277.050781 197.136719 276.640625 197.039062 276.21875 196.910156 L 276.21875 195.671875 C 276.585938 195.871094 276.964844 196.019531 277.355469 196.117188 C 277.746094 196.214844 278.15625 196.261719 278.59375 196.261719 C 279.296875 196.261719 279.855469 196.078125 280.265625 195.707031 C 280.675781 195.335938 280.882812 194.835938 280.882812 194.199219 C 280.882812 193.566406 280.675781 193.0625 280.265625 192.695312 C 279.855469 192.324219 279.296875 192.136719 278.59375 192.136719 C 278.261719 192.136719 277.933594 192.171875 277.605469 192.246094 C 277.277344 192.320312 276.945312 192.433594 276.605469 192.589844 Z M 276.605469 188.011719 "/>
<path style=" stroke:none;fill-rule:nonzero;fill:rgb(0%,0%,0%);fill-opacity:1;" d="M 284.542969 195.574219 L 285.832031 195.574219 L 285.832031 197.125 L 284.542969 197.125 Z M 284.542969 195.574219 "/>
<path style=" stroke:none;fill-rule:nonzero;fill:rgb(0%,0%,0%);fill-opacity:1;" d="M 291.152344 188.824219 C 290.519531 188.824219 290.042969 189.136719 289.722656 189.761719 C 289.402344 190.382812 289.242188 191.324219 289.242188 192.578125 C 289.242188 193.824219 289.402344 194.761719 289.722656 195.386719 C 290.042969 196.011719 290.519531 196.324219 291.152344 196.324219 C 291.792969 196.324219 292.273438 196.011719 292.589844 195.386719 C 292.910156 194.761719 293.070312 193.824219 293.070312 192.578125 C 293.070312 191.324219 292.910156 190.382812 292.589844 189.761719 C 292.273438 189.136719 291.792969 188.824219 291.152344 188.824219 Z M 291.152344 187.847656 C 292.175781 187.847656 292.957031 188.25 293.496094 189.058594 C 294.035156 189.867188 294.304688 191.039062 294.304688 192.578125 C 294.304688 194.109375 294.035156 195.28125 293.496094 196.089844 C 292.957031 196.898438 292.175781 197.300781 291.152344 197.300781 C 290.132812 197.300781 289.351562 196.898438 288.8125 196.089844 C 288.273438 195.28125 288.003906 194.109375 288.003906 192.578125 C 288.003906 191.039062 288.273438 189.867188 288.8125 189.058594 C 289.351562 188.25 290.132812 187.847656 291.152344 187.847656 Z M 291.152344 187.847656 "/>
<g clip-path="url(#clip7)" clip-rule="nonzero">
<path style="fill:none;stroke-width:0.8;stroke-linecap:square;stroke-linejoin:round;stroke:rgb(69.019608%,69.019608%,69.019608%);stroke-opacity:1;stroke-miterlimit:4;" d="M 264.046875 143.1 L 264.046875 7.2 " transform="matrix(1.25,0,0,1.25,0,0.000000000000014211)"/>
</g>
<path style="fill:none;stroke-width:0.8;stroke-linecap:butt;stroke-linejoin:round;stroke:rgb(0%,0%,0%);stroke-opacity:1;stroke-miterlimit:4;" d="M 0.000091 0 L 0.000091 3.5 " transform="matrix(1.25,0,0,1.25,330.05848,178.875)"/>
<path style=" stroke:none;fill-rule:nonzero;fill:rgb(0%,0%,0%);fill-opacity:1;" d="M 321.144531 188.011719 L 327.003906 188.011719 L 327.003906 188.535156 L 323.695312 197.125 L 322.40625 197.125 L 325.519531 189.050781 L 321.144531 189.050781 Z M 321.144531 188.011719 "/>
<path style=" stroke:none;fill-rule:nonzero;fill:rgb(0%,0%,0%);fill-opacity:1;" d="M 329.40625 195.574219 L 330.695312 195.574219 L 330.695312 197.125 L 329.40625 197.125 Z M 329.40625 195.574219 "/>
<path style=" stroke:none;fill-rule:nonzero;fill:rgb(0%,0%,0%);fill-opacity:1;" d="M 333.394531 188.011719 L 338.234375 188.011719 L 338.234375 189.050781 L 334.523438 189.050781 L 334.523438 191.28125 C 334.703125 191.21875 334.878906 191.175781 335.058594 191.144531 C 335.238281 191.113281 335.417969 191.101562 335.597656 191.101562 C 336.613281 191.101562 337.421875 191.378906 338.015625 191.9375 C 338.609375 192.492188 338.90625 193.246094 338.90625 194.199219 C 338.90625 195.179688 338.601562 195.941406 337.992188 196.488281 C 337.378906 197.03125 336.519531 197.300781 335.410156 197.300781 C 335.027344 197.300781 334.636719 197.269531 334.238281 197.203125 C 333.84375 197.136719 333.433594 197.039062 333.011719 196.910156 L 333.011719 195.671875 C 333.375 195.871094 333.753906 196.019531 334.144531 196.117188 C 334.535156 196.214844 334.949219 196.261719 335.382812 196.261719 C 336.085938 196.261719 336.644531 196.078125 337.054688 195.707031 C 337.464844 195.335938 337.671875 194.835938 337.671875 194.199219 C 337.671875 193.566406 337.464844 193.0625 337.054688 192.695312 C 336.644531 192.324219 336.085938 192.136719 335.382812 192.136719 C 335.054688 192.136719 334.726562 192.171875 334.398438 192.246094 C 334.070312 192.320312 333.734375 192.433594 333.394531 192.589844 Z M 333.394531 188.011719 "/>
<g clip-path="url(#clip8)" clip-rule="nonzero">
<path style="fill:none;stroke-width:0.8;stroke-linecap:square;stroke-linejoin:round;stroke:rgb(69.019608%,69.019608%,69.019608%);stroke-opacity:1;stroke-miterlimit:4;" d="M 30.103125 136.965625 L 281.203125 136.965625 " transform="matrix(1.25,0,0,1.25,0,0.000000000000014211)"/>
</g>
<path style="fill:none;stroke-width:0.8;stroke-linecap:butt;stroke-linejoin:round;stroke:rgb(0%,0%,0%);stroke-opacity:1;stroke-miterlimit:4;" d="M 0 0.001451 L -3.5 0.001451 " transform="matrix(1.25,0,0,1.25,37.628906,171.205218)"/>
<path style=" stroke:none;fill-rule:nonzero;fill:rgb(0%,0%,0%);fill-opacity:1;" d="M 12.972656 167.652344 C 12.339844 167.652344 11.859375 167.964844 11.539062 168.589844 C 11.222656 169.214844 11.0625 170.152344 11.0625 171.40625 C 11.0625 172.65625 11.222656 173.59375 11.539062 174.21875 C 11.859375 174.84375 12.339844 175.15625 12.972656 175.15625 C 13.613281 175.15625 14.089844 174.84375 14.410156 174.21875 C 14.730469 173.59375 14.890625 172.65625 14.890625 171.40625 C 14.890625 170.152344 14.730469 169.214844 14.410156 168.589844 C 14.089844 167.964844 13.613281 167.652344 12.972656 167.652344 Z M 12.972656 166.675781 C 13.996094 166.675781 14.773438 167.082031 15.3125 167.890625 C 15.851562 168.695312 16.125 169.871094 16.125 171.40625 C 16.125 172.941406 15.851562 174.113281 15.3125 174.921875 C 14.773438 175.726562 13.996094 176.132812 12.972656 176.132812 C 11.953125 176.132812 11.171875 175.726562 10.632812 174.921875 C 10.09375 174.113281 9.824219 172.941406 9.824219 171.40625 C 9.824219 169.871094 10.09375 168.695312 10.632812 167.890625 C 11.171875 167.082031 11.953125 166.675781 12.972656 166.675781 Z M 12.972656 166.675781 "/>
<path style=" stroke:none;fill-rule:nonzero;fill:rgb(0%,0%,0%);fill-opacity:1;" d="M 18.289062 174.402344 L 19.578125 174.402344 L 19.578125 175.953125 L 18.289062 175.953125 Z M 18.289062 174.402344 "/>
<path style=" stroke:none;fill-rule:nonzero;fill:rgb(0%,0%,0%);fill-opacity:1;" d="M 24.898438 167.652344 C 24.265625 167.652344 23.789062 167.964844 23.46875 168.589844 C 23.148438 169.214844 22.988281 170.152344 22.988281 171.40625 C 22.988281 172.65625 23.148438 173.59375 23.46875 174.21875 C 23.789062 174.84375 24.265625 175.15625 24.898438 175.15625 C 25.539062 175.15625 26.015625 174.84375 26.335938 174.21875 C 26.65625 173.59375 26.816406 172.65625 26.816406 171.40625 C 26.816406 170.152344 26.65625 169.214844 26.335938 168.589844 C 26.015625 167.964844 25.539062 167.652344 24.898438 167.652344 Z M 24.898438 166.675781 C 25.921875 166.675781 26.703125 167.082031 27.242188 167.890625 C 27.78125 168.695312 28.050781 169.871094 28.050781 171.40625 C 28.050781 172.941406 27.78125 174.113281 27.242188 174.921875 C 26.703125 175.726562 25.921875 176.132812 24.898438 176.132812 C 23.878906 176.132812 23.097656 175.726562 22.558594 174.921875 C 22.019531 174.113281 21.75 172.941406 21.75 171.40625 C 21.75 169.871094 22.019531 168.695312 22.558594 167.890625 C 23.097656 167.082031 23.878906 166.675781 24.898438 166.675781 Z M 24.898438 166.675781 "/>
<g clip-path="url(#clip9)" clip-rule="nonzero">
<path style="fill:none;stroke-width:0.8;stroke-linecap:square;stroke-linejoin:round;stroke:rgb(69.019608%,69.019608%,69.019608%);stroke-opacity:1;stroke-miterlimit:4;" d="M 30.103125 112.2375 L 281.203125 112.2375 " transform="matrix(1.25,0,0,1.25,0,0.000000000000014211)"/>
</g>
<path style="fill:none;stroke-width:0.8;stroke-linecap:butt;stroke-linejoin:round;stroke:rgb(0%,0%,0%);stroke-opacity:1;stroke-miterlimit:4;" d="M 0 -0.000129 L -3.5 -0.000129 " transform="matrix(1.25,0,0,1.25,37.628906,140.297036)"/>
<path style=" stroke:none;fill-rule:nonzero;fill:rgb(0%,0%,0%);fill-opacity:1;" d="M 12.972656 136.746094 C 12.339844 136.746094 11.859375 137.058594 11.539062 137.683594 C 11.222656 138.304688 11.0625 139.246094 11.0625 140.5 C 11.0625 141.746094 11.222656 142.683594 11.539062 143.308594 C 11.859375 143.933594 12.339844 144.246094 12.972656 144.246094 C 13.613281 144.246094 14.089844 143.933594 14.410156 143.308594 C 14.730469 142.683594 14.890625 141.746094 14.890625 140.5 C 14.890625 139.246094 14.730469 138.304688 14.410156 137.683594 C 14.089844 137.058594 13.613281 136.746094 12.972656 136.746094 Z M 12.972656 135.769531 C 13.996094 135.769531 14.773438 136.171875 15.3125 136.980469 C 15.851562 137.789062 16.125 138.960938 16.125 140.5 C 16.125 142.03125 15.851562 143.203125 15.3125 144.011719 C 14.773438 144.820312 13.996094 145.222656 12.972656 145.222656 C 11.953125 145.222656 11.171875 144.820312 10.632812 144.011719 C 10.09375 143.203125 9.824219 142.03125 9.824219 140.5 C 9.824219 138.960938 10.09375 137.789062 10.632812 136.980469 C 11.171875 136.171875 11.953125 135.769531 12.972656 135.769531 Z M 12.972656 135.769531 "/>
<path style=" stroke:none;fill-rule:nonzero;fill:rgb(0%,0%,0%);fill-opacity:1;" d="M 18.289062 143.496094 L 19.578125 143.496094 L 19.578125 145.046875 L 18.289062 145.046875 Z M 18.289062 143.496094 "/>
<path style=" stroke:none;fill-rule:nonzero;fill:rgb(0%,0%,0%);fill-opacity:1;" d="M 23.324219 144.007812 L 27.628906 144.007812 L 27.628906 145.046875 L 21.84375 145.046875 L 21.84375 144.007812 C 22.308594 143.523438 22.945312 142.875 23.753906 142.058594 C 24.5625 141.242188 25.070312 140.714844 25.277344 140.480469 C 25.671875 140.035156 25.949219 139.660156 26.105469 139.355469 C 26.261719 139.046875 26.339844 138.746094 26.339844 138.449219 C 26.339844 137.964844 26.171875 137.570312 25.832031 137.265625 C 25.492188 136.957031 25.046875 136.804688 24.503906 136.804688 C 24.117188 136.804688 23.707031 136.871094 23.277344 137.007812 C 22.847656 137.140625 22.390625 137.34375 21.902344 137.617188 L 21.902344 136.371094 C 22.398438 136.171875 22.863281 136.023438 23.292969 135.921875 C 23.726562 135.820312 24.121094 135.769531 24.480469 135.769531 C 25.421875 135.769531 26.175781 136.003906 26.738281 136.476562 C 27.296875 136.949219 27.578125 137.578125 27.578125 138.367188 C 27.578125 138.742188 27.507812 139.097656 27.367188 139.433594 C 27.226562 139.769531 26.972656 140.164062 26.601562 140.621094 C 26.5 140.738281 26.175781 141.078125 25.632812 141.644531 C 25.085938 142.207031 24.316406 142.996094 23.324219 144.007812 Z M 23.324219 144.007812 "/>
<g clip-path="url(#clip10)" clip-rule="nonzero">
<path style="fill:none;stroke-width:0.8;stroke-linecap:square;stroke-linejoin:round;stroke:rgb(69.019608%,69.019608%,69.019608%);stroke-opacity:1;stroke-miterlimit:4;" d="M 30.103125 87.5125 L 281.203125 87.5125 " transform="matrix(1.25,0,0,1.25,0,0.000000000000014211)"/>
</g>
<path style="fill:none;stroke-width:0.8;stroke-linecap:butt;stroke-linejoin:round;stroke:rgb(0%,0%,0%);stroke-opacity:1;stroke-miterlimit:4;" d="M 0 0.001415 L -3.5 0.001415 " transform="matrix(1.25,0,0,1.25,37.628906,109.388856)"/>
<path style=" stroke:none;fill-rule:nonzero;fill:rgb(0%,0%,0%);fill-opacity:1;" d="M 12.972656 105.835938 C 12.339844 105.835938 11.859375 106.148438 11.539062 106.773438 C 11.222656 107.398438 11.0625 108.335938 11.0625 109.589844 C 11.0625 110.839844 11.222656 111.777344 11.539062 112.402344 C 11.859375 113.027344 12.339844 113.339844 12.972656 113.339844 C 13.613281 113.339844 14.089844 113.027344 14.410156 112.402344 C 14.730469 111.777344 14.890625 110.839844 14.890625 109.589844 C 14.890625 108.335938 14.730469 107.398438 14.410156 106.773438 C 14.089844 106.148438 13.613281 105.835938 12.972656 105.835938 Z M 12.972656 104.859375 C 13.996094 104.859375 14.773438 105.265625 15.3125 106.074219 C 15.851562 106.878906 16.125 108.054688 16.125 109.589844 C 16.125 111.125 15.851562 112.296875 15.3125 113.105469 C 14.773438 113.910156 13.996094 114.316406 12.972656 114.316406 C 11.953125 114.316406 11.171875 113.910156 10.632812 113.105469 C 10.09375 112.296875 9.824219 111.125 9.824219 109.589844 C 9.824219 108.054688 10.09375 106.878906 10.632812 106.074219 C 11.171875 105.265625 11.953125 104.859375 12.972656 104.859375 Z M 12.972656 104.859375 "/>
<path style=" stroke:none;fill-rule:nonzero;fill:rgb(0%,0%,0%);fill-opacity:1;" d="M 18.289062 112.585938 L 19.578125 112.585938 L 19.578125 114.136719 L 18.289062 114.136719 Z M 18.289062 112.585938 "/>
<path style=" stroke:none;fill-rule:nonzero;fill:rgb(0%,0%,0%);fill-opacity:1;" d="M 25.652344 106.097656 L 22.539062 110.964844 L 25.652344 110.964844 Z M 25.328125 105.023438 L 26.878906 105.023438 L 26.878906 110.964844 L 28.179688 110.964844 L 28.179688 111.988281 L 26.878906 111.988281 L 26.878906 114.136719 L 25.652344 114.136719 L 25.652344 111.988281 L 21.539062 111.988281 L 21.539062 110.800781 Z M 25.328125 105.023438 "/>
<g clip-path="url(#clip11)" clip-rule="nonzero">
<path style="fill:none;stroke-width:0.8;stroke-linecap:square;stroke-linejoin:round;stroke:rgb(69.019608%,69.019608%,69.019608%);stroke-opacity:1;stroke-miterlimit:4;" d="M 30.103125 62.784375 L 281.203125 62.784375 " transform="matrix(1.25,0,0,1.25,0,0.000000000000014211)"/>
</g>
<path style="fill:none;stroke-width:0.8;stroke-linecap:butt;stroke-linejoin:round;stroke:rgb(0%,0%,0%);stroke-opacity:1;stroke-miterlimit:4;" d="M 0 -0.000166 L -3.5 -0.000166 " transform="matrix(1.25,0,0,1.25,37.628906,78.480676)"/>
<path style=" stroke:none;fill-rule:nonzero;fill:rgb(0%,0%,0%);fill-opacity:1;" d="M 12.972656 74.929688 C 12.339844 74.929688 11.859375 75.242188 11.539062 75.867188 C 11.222656 76.488281 11.0625 77.429688 11.0625 78.683594 C 11.0625 79.929688 11.222656 80.867188 11.539062 81.492188 C 11.859375 82.117188 12.339844 82.429688 12.972656 82.429688 C 13.613281 82.429688 14.089844 82.117188 14.410156 81.492188 C 14.730469 80.867188 14.890625 79.929688 14.890625 78.683594 C 14.890625 77.429688 14.730469 76.488281 14.410156 75.867188 C 14.089844 75.242188 13.613281 74.929688 12.972656 74.929688 Z M 12.972656 73.953125 C 13.996094 73.953125 14.773438 74.355469 15.3125 75.164062 C 15.851562 75.972656 16.125 77.144531 16.125 78.683594 C 16.125 80.214844 15.851562 81.386719 15.3125 82.195312 C 14.773438 83.003906 13.996094 83.40625 12.972656 83.40625 C 11.953125 83.40625 11.171875 83.003906 10.632812 82.195312 C 10.09375 81.386719 9.824219 80.214844 9.824219 78.683594 C 9.824219 77.144531 10.09375 75.972656 10.632812 75.164062 C 11.171875 74.355469 11.953125 73.953125 12.972656 73.953125 Z M 12.972656 73.953125 "/>
<path style=" stroke:none;fill-rule:nonzero;fill:rgb(0%,0%,0%);fill-opacity:1;" d="M 18.289062 81.679688 L 19.578125 81.679688 L 19.578125 83.230469 L 18.289062 83.230469 Z M 18.289062 81.679688 "/>
<path style=" stroke:none;fill-rule:nonzero;fill:rgb(0%,0%,0%);fill-opacity:1;" d="M 25.054688 78.183594 C 24.5 78.183594 24.0625 78.371094 23.738281 78.75 C 23.414062 79.128906 23.253906 79.648438 23.253906 80.304688 C 23.253906 80.960938 23.414062 81.480469 23.738281 81.859375 C 24.0625 82.242188 24.5 82.429688 25.054688 82.429688 C 25.605469 82.429688 26.042969 82.242188 26.367188 81.859375 C 26.691406 81.480469 26.851562 80.960938 26.851562 80.304688 C 26.851562 79.648438 26.691406 79.128906 26.367188 78.75 C 26.042969 78.371094 25.605469 78.183594 25.054688 78.183594 Z M 27.5 74.316406 L 27.5 75.441406 C 27.191406 75.292969 26.878906 75.183594 26.5625 75.105469 C 26.246094 75.027344 25.933594 74.988281 25.625 74.988281 C 24.8125 74.988281 24.191406 75.265625 23.761719 75.8125 C 23.332031 76.363281 23.085938 77.191406 23.027344 78.304688 C 23.265625 77.949219 23.566406 77.679688 23.929688 77.488281 C 24.292969 77.300781 24.691406 77.207031 25.125 77.207031 C 26.039062 77.207031 26.765625 77.484375 27.296875 78.039062 C 27.828125 78.59375 28.09375 79.351562 28.09375 80.304688 C 28.09375 81.242188 27.816406 81.992188 27.261719 82.558594 C 26.707031 83.125 25.972656 83.40625 25.054688 83.40625 C 24 83.40625 23.191406 83.003906 22.636719 82.195312 C 22.078125 81.386719 21.800781 80.214844 21.800781 78.683594 C 21.800781 77.242188 22.140625 76.09375 22.824219 75.238281 C 23.507812 74.378906 24.425781 73.953125 25.578125 73.953125 C 25.886719 73.953125 26.199219 73.984375 26.515625 74.042969 C 26.828125 74.105469 27.15625 74.195312 27.5 74.316406 Z M 27.5 74.316406 "/>
<g clip-path="url(#clip12)" clip-rule="nonzero">
<path style="fill:none;stroke-width:0.8;stroke-linecap:square;stroke-linejoin:round;stroke:rgb(69.019608%,69.019608%,69.019608%);stroke-opacity:1;stroke-miterlimit:4;" d="M 30.103125 38.059375 L 281.203125 38.059375 " transform="matrix(1.25,0,0,1.25,0,0.000000000000014211)"/>
</g>
<path style="fill:none;stroke-width:0.8;stroke-linecap:butt;stroke-linejoin:round;stroke:rgb(0%,0%,0%);stroke-opacity:1;stroke-miterlimit:4;" d="M 0 0.001379 L -3.5 0.001379 " transform="matrix(1.25,0,0,1.25,37.628906,47.572495)"/>
<path style=" stroke:none;fill-rule:nonzero;fill:rgb(0%,0%,0%);fill-opacity:1;" d="M 12.972656 44.019531 C 12.339844 44.019531 11.859375 44.332031 11.539062 44.957031 C 11.222656 45.582031 11.0625 46.519531 11.0625 47.773438 C 11.0625 49.023438 11.222656 49.960938 11.539062 50.585938 C 11.859375 51.210938 12.339844 51.523438 12.972656 51.523438 C 13.613281 51.523438 14.089844 51.210938 14.410156 50.585938 C 14.730469 49.960938 14.890625 49.023438 14.890625 47.773438 C 14.890625 46.519531 14.730469 45.582031 14.410156 44.957031 C 14.089844 44.332031 13.613281 44.019531 12.972656 44.019531 Z M 12.972656 43.042969 C 13.996094 43.042969 14.773438 43.449219 15.3125 44.257812 C 15.851562 45.0625 16.125 46.238281 16.125 47.773438 C 16.125 49.308594 15.851562 50.480469 15.3125 51.289062 C 14.773438 52.09375 13.996094 52.5 12.972656 52.5 C 11.953125 52.5 11.171875 52.09375 10.632812 51.289062 C 10.09375 50.480469 9.824219 49.308594 9.824219 47.773438 C 9.824219 46.238281 10.09375 45.0625 10.632812 44.257812 C 11.171875 43.449219 11.953125 43.042969 12.972656 43.042969 Z M 12.972656 43.042969 "/>
<path style=" stroke:none;fill-rule:nonzero;fill:rgb(0%,0%,0%);fill-opacity:1;" d="M 18.289062 50.769531 L 19.578125 50.769531 L 19.578125 52.320312 L 18.289062 52.320312 Z M 18.289062 50.769531 "/>
<path style=" stroke:none;fill-rule:nonzero;fill:rgb(0%,0%,0%);fill-opacity:1;" d="M 24.898438 47.992188 C 24.3125 47.992188 23.851562 48.148438 23.515625 48.464844 C 23.179688 48.777344 23.015625 49.207031 23.015625 49.757812 C 23.015625 50.304688 23.179688 50.738281 23.515625 51.050781 C 23.851562 51.367188 24.3125 51.523438 24.898438 51.523438 C 25.484375 51.523438 25.945312 51.363281 26.285156 51.050781 C 26.621094 50.734375 26.792969 50.300781 26.792969 49.757812 C 26.792969 49.207031 26.625 48.777344 26.289062 48.464844 C 25.953125 48.148438 25.488281 47.992188 24.898438 47.992188 Z M 23.667969 47.46875 C 23.136719 47.339844 22.726562 47.09375 22.429688 46.730469 C 22.136719 46.367188 21.988281 45.925781 21.988281 45.40625 C 21.988281 44.675781 22.246094 44.101562 22.765625 43.679688 C 23.285156 43.253906 23.996094 43.042969 24.898438 43.042969 C 25.804688 43.042969 26.519531 43.253906 27.035156 43.679688 C 27.550781 44.101562 27.8125 44.675781 27.8125 45.40625 C 27.8125 45.925781 27.664062 46.367188 27.367188 46.730469 C 27.074219 47.09375 26.664062 47.339844 26.140625 47.46875 C 26.734375 47.609375 27.195312 47.878906 27.527344 48.28125 C 27.859375 48.683594 28.023438 49.175781 28.023438 49.757812 C 28.023438 50.640625 27.753906 51.320312 27.214844 51.792969 C 26.675781 52.261719 25.902344 52.5 24.898438 52.5 C 23.894531 52.5 23.121094 52.261719 22.582031 51.792969 C 22.042969 51.320312 21.773438 50.640625 21.773438 49.757812 C 21.773438 49.175781 21.941406 48.683594 22.273438 48.28125 C 22.609375 47.878906 23.074219 47.609375 23.667969 47.46875 Z M 23.214844 45.523438 C 23.214844 45.992188 23.363281 46.363281 23.65625 46.625 C 23.953125 46.890625 24.367188 47.023438 24.898438 47.023438 C 25.429688 47.023438 25.84375 46.890625 26.140625 46.625 C 26.441406 46.363281 26.589844 45.992188 26.589844 45.523438 C 26.589844 45.050781 26.441406 44.679688 26.140625 44.417969 C 25.84375 44.152344 25.429688 44.019531 24.898438 44.019531 C 24.367188 44.019531 23.953125 44.152344 23.65625 44.417969 C 23.363281 44.679688 23.214844 45.050781 23.214844 45.523438 Z M 23.214844 45.523438 "/>
<g clip-path="url(#clip13)" clip-rule="nonzero">
<path style="fill:none;stroke-width:0.8;stroke-linecap:square;stroke-linejoin:round;stroke:rgb(69.019608%,69.019608%,69.019608%);stroke-opacity:1;stroke-miterlimit:4;" d="M 30.103125 13.33125 L 281.203125 13.33125 " transform="matrix(1.25,0,0,1.25,0,0.000000000000014211)"/>
</g>
<path style="fill:none;stroke-width:0.8;stroke-linecap:butt;stroke-linejoin:round;stroke:rgb(0%,0%,0%);stroke-opacity:1;stroke-miterlimit:4;" d="M 0 -0.000202 L -3.5 -0.000202 " transform="matrix(1.25,0,0,1.25,37.628906,16.664315)"/>
<path style=" stroke:none;fill-rule:nonzero;fill:rgb(0%,0%,0%);fill-opacity:1;" d="M 10.550781 20.375 L 12.5625 20.375 L 12.5625 13.421875 L 10.375 13.863281 L 10.375 12.738281 L 12.554688 12.300781 L 13.785156 12.300781 L 13.785156 20.375 L 15.796875 20.375 L 15.796875 21.414062 L 10.550781 21.414062 Z M 10.550781 20.375 "/>
<path style=" stroke:none;fill-rule:nonzero;fill:rgb(0%,0%,0%);fill-opacity:1;" d="M 18.289062 19.863281 L 19.578125 19.863281 L 19.578125 21.414062 L 18.289062 21.414062 Z M 18.289062 19.863281 "/>
<path style=" stroke:none;fill-rule:nonzero;fill:rgb(0%,0%,0%);fill-opacity:1;" d="M 24.898438 13.113281 C 24.265625 13.113281 23.789062 13.425781 23.46875 14.050781 C 23.148438 14.671875 22.988281 15.613281 22.988281 16.867188 C 22.988281 18.113281 23.148438 19.050781 23.46875 19.675781 C 23.789062 20.300781 24.265625 20.613281 24.898438 20.613281 C 25.539062 20.613281 26.015625 20.300781 26.335938 19.675781 C 26.65625 19.050781 26.816406 18.113281 26.816406 16.867188 C 26.816406 15.613281 26.65625 14.671875 26.335938 14.050781 C 26.015625 13.425781 25.539062 13.113281 24.898438 13.113281 Z M 24.898438 12.136719 C 25.921875 12.136719 26.703125 12.539062 27.242188 13.347656 C 27.78125 14.15625 28.050781 15.328125 28.050781 16.867188 C 28.050781 18.398438 27.78125 19.570312 27.242188 20.378906 C 26.703125 21.1875 25.921875 21.589844 24.898438 21.589844 C 23.878906 21.589844 23.097656 21.1875 22.558594 20.378906 C 22.019531 19.570312 21.75 18.398438 21.75 16.867188 C 21.75 15.328125 22.019531 14.15625 22.558594 13.347656 C 23.097656 12.539062 23.878906 12.136719 24.898438 12.136719 Z M 24.898438 12.136719 "/>
<path style="fill:none;stroke-width:1.5;stroke-linecap:square;stroke-linejoin:round;stroke:rgb(12.156863%,46.666667%,70.588235%);stroke-opacity:1;stroke-miterlimit:4;" d="M 41.515625 136.921875 L 65.921875 136.7375 L 77.409375 136.4625 L 86.021875 136.05 L 93.2 135.465625 L 98.94375 134.740625 L 103.25 133.98125 L 107.559375 132.971875 L 110.428125 132.121875 L 113.3 131.1 L 116.171875 129.878125 L 119.04375 128.415625 L 121.915625 126.68125 L 124.7875 124.63125 L 127.65625 122.228125 L 130.528125 119.428125 L 133.4 116.196875 L 136.271875 112.50625 L 139.14375 108.346875 L 142.015625 103.715625 L 144.884375 98.634375 L 147.75625 93.15625 L 152.0625 84.35 L 164.984375 57.140625 L 167.85625 51.659375 L 170.728125 46.58125 L 173.6 41.95 L 176.471875 37.7875 L 179.340625 34.1 L 182.2125 30.86875 L 185.084375 28.06875 L 187.95625 25.6625 L 190.828125 23.615625 L 193.7 21.878125 L 196.56875 20.41875 L 199.440625 19.19375 L 202.3125 18.175 L 206.61875 16.95625 L 210.928125 16.0375 L 215.234375 15.346875 L 220.975 14.690625 L 228.15625 14.159375 L 236.76875 13.7875 L 248.253125 13.5375 L 266.91875 13.3875 L 269.790625 13.378125 " transform="matrix(1.25,0,0,1.25,0,0.000000000000014211)"/>
<path style="fill:none;stroke-width:1.5;stroke-linecap:butt;stroke-linejoin:round;stroke:rgb(74.901961%,0%,74.901961%);stroke-opacity:1;stroke-dasharray:5.55,2.4;stroke-miterlimit:4;" d="M 41.515625 136.921875 L 65.921875 136.7375 L 77.409375 136.4625 L 86.021875 136.05625 L 93.2 135.484375 L 98.94375 134.78125 L 103.25 134.053125 L 107.559375 133.1 L 111.865625 131.865625 L 114.7375 130.853125 L 117.60625 129.66875 L 120.478125 128.296875 L 123.35 126.725 L 126.221875 124.946875 L 129.09375 122.971875 L 133.4 119.684375 L 144.884375 110.51875 L 147.75625 108.678125 L 150.628125 107.259375 L 152.0625 106.740625 L 153.5 106.3625 L 154.934375 106.134375 L 156.371875 106.05625 L 157.80625 106.134375 L 159.24375 106.3625 L 160.678125 106.740625 L 162.1125 107.259375 L 164.984375 108.678125 L 167.85625 110.51875 L 170.728125 112.65625 L 176.471875 117.346875 L 180.778125 120.815625 L 185.084375 123.984375 L 187.95625 125.8625 L 190.828125 127.5375 L 193.7 129.00625 L 196.56875 130.284375 L 199.440625 131.378125 L 203.746875 132.721875 L 208.05625 133.7625 L 212.3625 134.559375 L 218.10625 135.33125 L 223.846875 135.859375 L 231.025 136.290625 L 241.075 136.628125 L 255.43125 136.840625 L 269.790625 136.91875 " transform="matrix(1.25,0,0,1.25,0,0.000000000000014211)"/>
<path style="fill:none;stroke-width:0.8;stroke-linecap:square;stroke-linejoin:miter;stroke:rgb(0%,0%,0%);stroke-opacity:1;stroke-miterlimit:4;" d="M 30.103125 143.1 L 30.103125 7.2 " transform="matrix(1.25,0,0,1.25,0,0.000000000000014211)"/>
<path style="fill:none;stroke-width:0.8;stroke-linecap:square;stroke-linejoin:miter;stroke:rgb(0%,0%,0%);stroke-opacity:1;stroke-miterlimit:4;" d="M 281.203125 143.1 L 281.203125 7.2 " transform="matrix(1.25,0,0,1.25,0,0.000000000000014211)"/>
<path style="fill:none;stroke-width:0.8;stroke-linecap:square;stroke-linejoin:miter;stroke:rgb(0%,0%,0%);stroke-opacity:1;stroke-miterlimit:4;" d="M 30.103125 143.1 L 281.203125 143.1 " transform="matrix(1.25,0,0,1.25,0,0.000000000000014211)"/>
<path style="fill:none;stroke-width:0.8;stroke-linecap:square;stroke-linejoin:miter;stroke:rgb(0%,0%,0%);stroke-opacity:1;stroke-miterlimit:4;" d="M 30.103125 7.2 L 281.203125 7.2 " transform="matrix(1.25,0,0,1.25,0,0.000000000000014211)"/>
<use xlink:href="#surface6" mask="url(#mask0)"/>
<path style="fill:none;stroke-width:1.5;stroke-linecap:square;stroke-linejoin:round;stroke:rgb(12.156863%,46.666667%,70.588235%);stroke-opacity:1;stroke-miterlimit:4;" d="M 39.103125 20.3 L 59.103125 20.3 " transform="matrix(1.25,0,0,1.25,0,0.000000000000014211)"/>
<path style=" stroke:none;fill-rule:nonzero;fill:rgb(0%,0%,0%);fill-opacity:1;" d="M 89.414062 23.113281 L 89.414062 24.175781 C 89.097656 24.011719 88.769531 23.890625 88.425781 23.8125 C 88.085938 23.730469 87.730469 23.6875 87.363281 23.6875 C 86.804688 23.6875 86.386719 23.773438 86.109375 23.945312 C 85.832031 24.113281 85.691406 24.371094 85.691406 24.714844 C 85.691406 24.972656 85.789062 25.179688 85.992188 25.328125 C 86.1875 25.476562 86.589844 25.617188 87.195312 25.75 L 87.578125 25.835938 C 88.375 26.007812 88.941406 26.246094 89.277344 26.558594 C 89.613281 26.871094 89.78125 27.304688 89.78125 27.863281 C 89.78125 28.496094 89.53125 29 89.027344 29.371094 C 88.523438 29.742188 87.835938 29.925781 86.953125 29.925781 C 86.589844 29.925781 86.207031 29.890625 85.8125 29.820312 C 85.414062 29.746094 84.996094 29.640625 84.554688 29.5 L 84.554688 28.339844 C 84.972656 28.554688 85.382812 28.714844 85.78125 28.824219 C 86.1875 28.929688 86.585938 28.984375 86.980469 28.984375 C 87.507812 28.984375 87.914062 28.894531 88.199219 28.714844 C 88.484375 28.53125 88.625 28.277344 88.625 27.949219 C 88.625 27.644531 88.523438 27.410156 88.320312 27.246094 C 88.113281 27.082031 87.664062 26.925781 86.96875 26.777344 L 86.578125 26.683594 C 85.882812 26.539062 85.378906 26.3125 85.070312 26.011719 C 84.757812 25.707031 84.605469 25.289062 84.605469 24.761719 C 84.605469 24.117188 84.832031 23.621094 85.289062 23.273438 C 85.746094 22.921875 86.390625 22.75 87.230469 22.75 C 87.644531 22.75 88.035156 22.777344 88.398438 22.839844 C 88.765625 22.898438 89.105469 22.992188 89.414062 23.113281 Z M 89.414062 23.113281 "/>
<path style=" stroke:none;fill-rule:nonzero;fill:rgb(0%,0%,0%);fill-opacity:1;" d="M 91.570312 22.914062 L 92.691406 22.914062 L 92.691406 29.75 L 91.570312 29.75 Z M 91.570312 20.25 L 92.691406 20.25 L 92.691406 21.675781 L 91.570312 21.675781 Z M 91.570312 20.25 "/>
<path style=" stroke:none;fill-rule:nonzero;fill:rgb(0%,0%,0%);fill-opacity:1;" d="M 99.539062 26.25 C 99.539062 25.4375 99.371094 24.804688 99.035156 24.359375 C 98.703125 23.910156 98.230469 23.6875 97.625 23.6875 C 97.023438 23.6875 96.554688 23.910156 96.21875 24.359375 C 95.882812 24.804688 95.714844 25.4375 95.714844 26.25 C 95.714844 27.058594 95.882812 27.6875 96.21875 28.136719 C 96.554688 28.585938 97.023438 28.808594 97.625 28.808594 C 98.230469 28.808594 98.703125 28.585938 99.035156 28.136719 C 99.371094 27.6875 99.539062 27.058594 99.539062 26.25 Z M 100.664062 28.902344 C 100.664062 30.0625 100.40625 30.929688 99.886719 31.496094 C 99.371094 32.0625 98.582031 32.347656 97.515625 32.347656 C 97.121094 32.347656 96.746094 32.320312 96.398438 32.261719 C 96.046875 32.203125 95.707031 32.109375 95.378906 31.988281 L 95.378906 30.898438 C 95.707031 31.074219 96.03125 31.207031 96.355469 31.292969 C 96.675781 31.378906 97.003906 31.421875 97.335938 31.421875 C 98.074219 31.421875 98.625 31.226562 98.992188 30.84375 C 99.355469 30.460938 99.539062 29.878906 99.539062 29.101562 L 99.539062 28.546875 C 99.308594 28.949219 99.011719 29.25 98.648438 29.449219 C 98.289062 29.648438 97.855469 29.75 97.347656 29.75 C 96.511719 29.75 95.835938 29.429688 95.324219 28.792969 C 94.808594 28.152344 94.554688 27.304688 94.554688 26.25 C 94.554688 25.191406 94.808594 24.34375 95.324219 23.707031 C 95.835938 23.066406 96.511719 22.75 97.347656 22.75 C 97.855469 22.75 98.289062 22.847656 98.648438 23.046875 C 99.011719 23.246094 99.308594 23.546875 99.539062 23.949219 L 99.539062 22.914062 L 100.664062 22.914062 Z M 100.664062 28.902344 "/>
<path style=" stroke:none;fill-rule:nonzero;fill:rgb(0%,0%,0%);fill-opacity:1;" d="M 108.296875 24.226562 C 108.578125 23.71875 108.914062 23.347656 109.304688 23.109375 C 109.695312 22.867188 110.15625 22.75 110.6875 22.75 C 111.398438 22.75 111.945312 22.996094 112.335938 23.496094 C 112.71875 23.992188 112.914062 24.703125 112.914062 25.621094 L 112.914062 29.75 L 111.785156 29.75 L 111.785156 25.660156 C 111.785156 25.003906 111.667969 24.519531 111.4375 24.203125 C 111.203125 23.882812 110.851562 23.726562 110.375 23.726562 C 109.792969 23.726562 109.332031 23.917969 108.992188 24.304688 C 108.65625 24.691406 108.488281 25.21875 108.488281 25.886719 L 108.488281 29.75 L 107.359375 29.75 L 107.359375 25.660156 C 107.359375 25 107.242188 24.511719 107.011719 24.199219 C 106.78125 23.882812 106.421875 23.726562 105.9375 23.726562 C 105.363281 23.726562 104.90625 23.917969 104.570312 24.308594 C 104.230469 24.695312 104.0625 25.222656 104.0625 25.886719 L 104.0625 29.75 L 102.933594 29.75 L 102.933594 22.914062 L 104.0625 22.914062 L 104.0625 23.976562 C 104.320312 23.554688 104.625 23.246094 104.984375 23.046875 C 105.34375 22.847656 105.765625 22.75 106.257812 22.75 C 106.757812 22.75 107.179688 22.875 107.527344 23.128906 C 107.875 23.378906 108.132812 23.746094 108.296875 24.226562 Z M 108.296875 24.226562 "/>
<path style=" stroke:none;fill-rule:nonzero;fill:rgb(0%,0%,0%);fill-opacity:1;" d="M 117.800781 23.699219 C 117.199219 23.699219 116.722656 23.933594 116.375 24.40625 C 116.023438 24.875 115.847656 25.519531 115.847656 26.335938 C 115.847656 27.152344 116.023438 27.796875 116.371094 28.269531 C 116.71875 28.738281 117.195312 28.972656 117.800781 28.972656 C 118.402344 28.972656 118.875 28.738281 119.222656 28.265625 C 119.574219 27.792969 119.75 27.148438 119.75 26.335938 C 119.75 25.527344 119.574219 24.882812 119.222656 24.410156 C 118.875 23.9375 118.402344 23.699219 117.800781 23.699219 Z M 117.800781 22.75 C 118.777344 22.75 119.546875 23.066406 120.101562 23.703125 C 120.660156 24.335938 120.941406 25.214844 120.941406 26.335938 C 120.941406 27.453125 120.660156 28.332031 120.101562 28.972656 C 119.546875 29.609375 118.777344 29.925781 117.800781 29.925781 C 116.820312 29.925781 116.054688 29.609375 115.496094 28.972656 C 114.941406 28.332031 114.664062 27.453125 114.664062 26.335938 C 114.664062 25.214844 114.941406 24.335938 115.496094 23.703125 C 116.054688 23.066406 116.820312 22.75 117.800781 22.75 Z M 117.800781 22.75 "/>
<path style=" stroke:none;fill-rule:nonzero;fill:rgb(0%,0%,0%);fill-opacity:1;" d="M 122.800781 22.914062 L 123.921875 22.914062 L 123.921875 29.75 L 122.800781 29.75 Z M 122.800781 20.25 L 123.921875 20.25 L 123.921875 21.675781 L 122.800781 21.675781 Z M 122.800781 20.25 "/>
<path style=" stroke:none;fill-rule:nonzero;fill:rgb(0%,0%,0%);fill-opacity:1;" d="M 130.773438 23.949219 L 130.773438 20.25 L 131.894531 20.25 L 131.894531 29.75 L 130.773438 29.75 L 130.773438 28.722656 C 130.535156 29.128906 130.238281 29.429688 129.878906 29.628906 C 129.519531 29.828125 129.085938 29.925781 128.582031 29.925781 C 127.753906 29.925781 127.082031 29.597656 126.5625 28.9375 C 126.042969 28.277344 125.785156 27.410156 125.785156 26.335938 C 125.785156 25.261719 126.042969 24.394531 126.5625 23.738281 C 127.082031 23.078125 127.753906 22.75 128.582031 22.75 C 129.085938 22.75 129.519531 22.847656 129.878906 23.046875 C 130.238281 23.242188 130.535156 23.542969 130.773438 23.949219 Z M 126.945312 26.335938 C 126.945312 27.160156 127.117188 27.808594 127.457031 28.28125 C 127.796875 28.75 128.261719 28.984375 128.855469 28.984375 C 129.449219 28.984375 129.917969 28.75 130.257812 28.28125 C 130.601562 27.808594 130.773438 27.160156 130.773438 26.335938 C 130.773438 25.511719 130.601562 24.863281 130.257812 24.394531 C 129.917969 23.921875 129.449219 23.6875 128.855469 23.6875 C 128.261719 23.6875 127.796875 23.921875 127.457031 24.394531 C 127.117188 24.863281 126.945312 25.511719 126.945312 26.335938 Z M 126.945312 26.335938 "/>
<path style="fill:none;stroke-width:1.5;stroke-linecap:butt;stroke-linejoin:round;stroke:rgb(74.901961%,0%,74.901961%);stroke-opacity:1;stroke-dasharray:5.55,2.4;stroke-miterlimit:4;" d="M 39.103125 34.975 L 59.103125 34.975 " transform="matrix(1.25,0,0,1.25,0,0.000000000000014211)"/>
<path style=" stroke:none;fill-rule:nonzero;fill:rgb(0%,0%,0%);fill-opacity:1;" d="M 89.554688 44.597656 C 89.554688 43.785156 89.386719 43.152344 89.050781 42.707031 C 88.714844 42.257812 88.246094 42.035156 87.640625 42.035156 C 87.039062 42.035156 86.570312 42.257812 86.234375 42.707031 C 85.898438 43.152344 85.726562 43.785156 85.726562 44.597656 C 85.726562 45.40625 85.898438 46.035156 86.234375 46.484375 C 86.570312 46.933594 87.039062 47.15625 87.640625 47.15625 C 88.246094 47.15625 88.714844 46.933594 89.050781 46.484375 C 89.386719 46.035156 89.554688 45.40625 89.554688 44.597656 Z M 90.679688 47.246094 C 90.679688 48.410156 90.417969 49.277344 89.902344 49.84375 C 89.386719 50.410156 88.59375 50.695312 87.53125 50.695312 C 87.132812 50.695312 86.761719 50.664062 86.414062 50.605469 C 86.0625 50.546875 85.722656 50.457031 85.390625 50.335938 L 85.390625 49.242188 C 85.722656 49.421875 86.046875 49.554688 86.367188 49.636719 C 86.691406 49.722656 87.019531 49.765625 87.351562 49.765625 C 88.089844 49.765625 88.640625 49.574219 89.007812 49.191406 C 89.371094 48.808594 89.554688 48.226562 89.554688 47.449219 L 89.554688 46.890625 C 89.324219 47.296875 89.027344 47.597656 88.664062 47.796875 C 88.300781 47.996094 87.867188 48.09375 87.363281 48.09375 C 86.527344 48.09375 85.851562 47.777344 85.335938 47.136719 C 84.824219 46.5 84.570312 45.652344 84.570312 44.597656 C 84.570312 43.539062 84.824219 42.691406 85.335938 42.054688 C 85.851562 41.414062 86.527344 41.09375 87.363281 41.09375 C 87.867188 41.09375 88.300781 41.195312 88.664062 41.394531 C 89.027344 41.59375 89.324219 41.894531 89.554688 42.296875 L 89.554688 41.257812 L 90.679688 41.257812 Z M 90.679688 47.246094 "/>
<path style=" stroke:none;fill-rule:nonzero;fill:rgb(0%,0%,0%);fill-opacity:1;" d="M 96.953125 42.308594 C 96.824219 42.234375 96.6875 42.183594 96.539062 42.148438 C 96.390625 42.113281 96.226562 42.09375 96.050781 42.09375 C 95.414062 42.09375 94.925781 42.300781 94.585938 42.714844 C 94.246094 43.128906 94.078125 43.71875 94.078125 44.492188 L 94.078125 48.09375 L 92.949219 48.09375 L 92.949219 41.257812 L 94.078125 41.257812 L 94.078125 42.320312 C 94.3125 41.90625 94.621094 41.597656 95 41.398438 C 95.378906 41.195312 95.839844 41.09375 96.378906 41.09375 C 96.457031 41.09375 96.542969 41.101562 96.636719 41.109375 C 96.730469 41.121094 96.832031 41.136719 96.945312 41.15625 Z M 96.953125 42.308594 "/>
<path style=" stroke:none;fill-rule:nonzero;fill:rgb(0%,0%,0%);fill-opacity:1;" d="M 101.238281 44.660156 C 100.332031 44.660156 99.703125 44.761719 99.351562 44.96875 C 99 45.175781 98.824219 45.53125 98.824219 46.03125 C 98.824219 46.429688 98.957031 46.746094 99.21875 46.980469 C 99.484375 47.214844 99.839844 47.332031 100.289062 47.332031 C 100.914062 47.332031 101.414062 47.109375 101.789062 46.667969 C 102.167969 46.226562 102.355469 45.640625 102.355469 44.910156 L 102.355469 44.660156 Z M 103.476562 44.195312 L 103.476562 48.09375 L 102.355469 48.09375 L 102.355469 47.058594 C 102.097656 47.472656 101.777344 47.777344 101.394531 47.976562 C 101.011719 48.175781 100.546875 48.273438 99.992188 48.273438 C 99.292969 48.273438 98.734375 48.078125 98.320312 47.683594 C 97.910156 47.289062 97.703125 46.765625 97.703125 46.105469 C 97.703125 45.335938 97.960938 44.757812 98.472656 44.367188 C 98.988281 43.976562 99.757812 43.78125 100.777344 43.78125 L 102.355469 43.78125 L 102.355469 43.667969 C 102.355469 43.152344 102.183594 42.753906 101.84375 42.46875 C 101.503906 42.1875 101.027344 42.046875 100.414062 42.046875 C 100.023438 42.046875 99.640625 42.09375 99.269531 42.1875 C 98.902344 42.28125 98.546875 42.421875 98.203125 42.609375 L 98.203125 41.570312 C 98.613281 41.410156 99.011719 41.292969 99.398438 41.214844 C 99.785156 41.136719 100.164062 41.09375 100.527344 41.09375 C 101.519531 41.09375 102.257812 41.351562 102.746094 41.863281 C 103.234375 42.375 103.476562 43.152344 103.476562 44.195312 Z M 103.476562 44.195312 "/>
<path style=" stroke:none;fill-rule:nonzero;fill:rgb(0%,0%,0%);fill-opacity:1;" d="M 110.289062 42.296875 L 110.289062 38.597656 L 111.410156 38.597656 L 111.410156 48.09375 L 110.289062 48.09375 L 110.289062 47.070312 C 110.050781 47.476562 109.753906 47.777344 109.394531 47.976562 C 109.035156 48.175781 108.601562 48.273438 108.097656 48.273438 C 107.269531 48.273438 106.597656 47.945312 106.078125 47.285156 C 105.5625 46.625 105.300781 45.757812 105.300781 44.683594 C 105.300781 43.609375 105.5625 42.742188 106.078125 42.082031 C 106.597656 41.425781 107.269531 41.09375 108.097656 41.09375 C 108.601562 41.09375 109.035156 41.195312 109.394531 41.390625 C 109.753906 41.589844 110.050781 41.890625 110.289062 42.296875 Z M 106.460938 44.683594 C 106.460938 45.507812 106.632812 46.15625 106.972656 46.625 C 107.3125 47.097656 107.777344 47.332031 108.371094 47.332031 C 108.964844 47.332031 109.433594 47.097656 109.773438 46.625 C 110.117188 46.15625 110.289062 45.507812 110.289062 44.683594 C 110.289062 43.859375 110.117188 43.210938 109.773438 42.738281 C 109.433594 42.269531 108.964844 42.035156 108.371094 42.035156 C 107.777344 42.035156 107.3125 42.269531 106.972656 42.738281 C 106.632812 43.210938 106.460938 43.859375 106.460938 44.683594 Z M 106.460938 44.683594 "/>
<path style=" stroke:none;fill-rule:nonzero;fill:rgb(0%,0%,0%);fill-opacity:1;" d="M 113.726562 41.257812 L 114.847656 41.257812 L 114.847656 48.09375 L 113.726562 48.09375 Z M 113.726562 38.597656 L 114.847656 38.597656 L 114.847656 40.019531 L 113.726562 40.019531 Z M 113.726562 38.597656 "/>
<path style=" stroke:none;fill-rule:nonzero;fill:rgb(0%,0%,0%);fill-opacity:1;" d="M 123.046875 44.394531 L 123.046875 44.945312 L 117.882812 44.945312 C 117.929688 45.71875 118.164062 46.308594 118.582031 46.710938 C 118.996094 47.117188 119.578125 47.320312 120.324219 47.320312 C 120.753906 47.320312 121.171875 47.265625 121.578125 47.160156 C 121.980469 47.054688 122.382812 46.898438 122.785156 46.683594 L 122.785156 47.746094 C 122.378906 47.917969 121.964844 48.046875 121.542969 48.136719 C 121.121094 48.226562 120.691406 48.273438 120.257812 48.273438 C 119.164062 48.273438 118.300781 47.957031 117.664062 47.320312 C 117.027344 46.6875 116.710938 45.828125 116.710938 44.742188 C 116.710938 43.625 117.011719 42.738281 117.617188 42.082031 C 118.21875 41.425781 119.035156 41.09375 120.0625 41.09375 C 120.980469 41.09375 121.707031 41.390625 122.242188 41.984375 C 122.777344 42.574219 123.046875 43.378906 123.046875 44.394531 Z M 121.921875 44.066406 C 121.914062 43.453125 121.742188 42.964844 121.40625 42.597656 C 121.070312 42.230469 120.625 42.046875 120.074219 42.046875 C 119.445312 42.046875 118.945312 42.222656 118.570312 42.578125 C 118.191406 42.933594 117.976562 43.429688 117.917969 44.074219 Z M 121.921875 44.066406 "/>
<path style=" stroke:none;fill-rule:nonzero;fill:rgb(0%,0%,0%);fill-opacity:1;" d="M 130.570312 43.96875 L 130.570312 48.09375 L 129.449219 48.09375 L 129.449219 44.003906 C 129.449219 43.359375 129.324219 42.875 129.070312 42.554688 C 128.816406 42.234375 128.4375 42.070312 127.933594 42.070312 C 127.328125 42.070312 126.851562 42.265625 126.5 42.652344 C 126.148438 43.039062 125.972656 43.5625 125.972656 44.230469 L 125.972656 48.09375 L 124.84375 48.09375 L 124.84375 41.257812 L 125.972656 41.257812 L 125.972656 42.320312 C 126.242188 41.910156 126.558594 41.601562 126.921875 41.398438 C 127.289062 41.195312 127.707031 41.09375 128.183594 41.09375 C 128.96875 41.09375 129.5625 41.339844 129.964844 41.824219 C 130.371094 42.308594 130.570312 43.023438 130.570312 43.96875 Z M 130.570312 43.96875 "/>
<path style=" stroke:none;fill-rule:nonzero;fill:rgb(0%,0%,0%);fill-opacity:1;" d="M 133.921875 39.316406 L 133.921875 41.257812 L 136.234375 41.257812 L 136.234375 42.132812 L 133.921875 42.132812 L 133.921875 45.84375 C 133.921875 46.402344 134 46.757812 134.148438 46.917969 C 134.304688 47.078125 134.613281 47.15625 135.082031 47.15625 L 136.234375 47.15625 L 136.234375 48.09375 L 135.082031 48.09375 C 134.214844 48.09375 133.617188 47.933594 133.289062 47.609375 C 132.957031 47.285156 132.792969 46.699219 132.792969 45.84375 L 132.792969 42.132812 L 131.96875 42.132812 L 131.96875 41.257812 L 132.792969 41.257812 L 132.792969 39.316406 Z M 133.921875 39.316406 "/>
</g>
</svg>
